name processed_emg_signals
nRows=29
nColumns=7
 
endheader
time	LGLTMED	LRF	LADDLONG	LBF	LTA	LGM
2.1751999999999985	0.012054624967277	0.0053406553342938	0.0114442640915513	0.0108339032158255	-0.0453192964196205	-0.0007629534229636
2.1851999999999983	-0.0007629534229636	0.0376897826790809	-0.0166323371231555	0.0108339032158255	-0.0181582383811473	0.0022888509556651
2.1951999999999985	0.026398105546832	-0.0126649904996156	-0.034332800656557	0.0038147531449794	-0.0059510208666324	-0.0004577729851007
2.2051999999999983	0.0154116097837686	-0.02029450237751	0.0132753467187285	0.0169375129044055	-0.0508125461637973	0.0041199335828423
2.215199999999998	0.0169375129044055	-0.0172426961362361	0.0328068956732749	0.023041121661663	0.007171737961471	-0.0083924643695354
2.2251999999999983	0.0044251140207052	-0.0074769230559468	-0.0306706354022026	0.009613181464374	0.0328068956732749	0.0111390836536884
2.235199999999998	-0.0053406599909067	-0.0132753513753414	-0.0303654558956623	0.0154116097837686	-0.0187685992568731	-0.0059510208666324
2.2451999999999983	-0.0010681338608264	-0.0071717426180839	-0.0633249431848526	0.0102235423400998	0.1145952492952346	0.0148012489080429
2.255199999999998	0.0105287227779626	0.0193789564073085	-0.0410467721521854	0.0083924597129225	-0.004425118677318	-0.0065613817423582
2.2651999999999983	0.0312809944152832	0.0019836705178022	0.0199893154203891	0.0053406553342938	-0.0096131861209869	0.0138857075944542
2.275199999999998	0.0032043922692537	-0.0196841396391391	0.0535591654479503	0.0059510162100195	-0.0376897864043712	-0.0035095773637294
2.2851999999999983	0.0172426924109458	-0.0028992164880037	0.0166323315352201	0.004730294458568	-0.0010681338608264	0.0050354748964309
2.295199999999998	0.0135805271565914	-0.0175478775054216	-0.0028992164880037	0.000152587890625	0.0016784900799393	0.009613181464374
2.3051999999999984	-0.0062562013044953	0.0050354748964309	-0.0389105081558227	0.0065613770857453	0.1823453158140182	0.0321965329349041
2.315199999999998	0.0178530532866716	0.018158234655857	-0.0022888556122779	0.0062561966478824	-0.1213092282414436	0.0022888509556651
2.3251999999999984	0.0074769183993339	-0.0148012535646557	-0.027618832886219	0.0123598054051399	0.0575265102088451	0.0306706316769123
2.335199999999998	0.0111390836536884	-0.0099183665588498	-0.0331120789051055	-0.0035095773637294	-0.0962844341993331	0.0074769183993339
2.3451999999999984	0.0090028205886483	-0.05294881016016	0.0233463011682033	0.0056458357721567	-0.0083924643695354	0.0062561966478824
2.355199999999998	0.0086976401507854	0.023041121661663	-0.0071717426180839	0.01449606847018	0.0401312261819839	0.0123598054051399
2.365199999999998	0.0178530532866716	-0.0230411253869533	0.007171737961471	0.0111390836536884	0.004730294458568	0.0123598054051399
2.375199999999998	-0.0019836751744151	-0.0175478775054216	0.0373845994472503	0.0090028205886483	0.0682078227400779	-0.0010681338608264
2.385199999999998	0.0126649858430027	-0.0099183665588498	-0.0148012535646557	-0.0001525925472378	-0.0025940360501408	0.007171737961471
2.395199999999998	-0.0004577729851007	0.007171737961471	-0.0157167948782444	0.0038147531449794	0.0621042177081108	0.009613181464374
2.405199999999998	0.0028992118313908	-0.0013733142986893	-0.0135805318132042	-0.0062562013044953	-0.0395208671689033	-0.0004577729851007
2.4151999999999982	0.012054624967277	-0.0254825688898563	-0.0218204036355018	0.0059510162100195	0.0340276174247264	0.0022888509556651
2.425199999999998	0.0157167911529541	0.0056458357721567	-0.0138857122510671	0.0138857075944542	-0.0010681338608264	0.0056458357721567
2.4351999999999983	0.0132753467187285	-0.0114442687481641	-0.0328068993985652	0.0041199335828423	-0.0181582383811473	-0.0019836751744151
2.445199999999998	0.0007629487663507	-0.0151064340025186	-0.0639353021979332	0.0032043922692537	-0.009308005683124	0.0013733096420764
2.4551999999999983	0.0025940313935279	-0.0148012535646557	0.0407415851950645	0.0111390836536884	-0.0221255831420421	0.0282291881740093
